<svg width="9" height="8" viewBox="0 0 9 8" fill="none" xmlns="http://www.w3.org/2000/svg">
<path fill-rule="evenodd" clip-rule="evenodd" d="M1.05514 0.838867C0.607237 0.838867 0.244141 1.20196 0.244141 1.64987V6.51586C0.244141 6.96378 0.607237 7.32686 1.05514 7.32686H5.11014C5.55805 7.32686 5.92113 6.96378 5.92113 6.51586V5.37515C5.92113 5.34275 5.95722 5.32341 5.98419 5.34137L7.7237 6.50106C7.9932 6.68074 8.35413 6.48756 8.35413 6.16369V2.00205C8.35413 1.67818 7.9932 1.485 7.7237 1.66465L5.98419 2.82434C5.95722 2.8423 5.92113 2.82299 5.92113 2.7906V1.64987C5.92113 1.20196 5.55805 0.838867 5.11014 0.838867H1.05514Z" fill="#707070"/>
</svg>
